<svg id="Capa_1" enable-background="new 0 0 512 512" height="512" viewBox="0 0 512 512" width="512" xmlns="http://www.w3.org/2000/svg"><g><g><circle cx="256" cy="256" fill="#9dc6fb" r="248.5"/><path d="m301.99 500.25c-14.9 2.79-30.28 4.25-45.99 4.25-137.25 0-248.5-111.26-248.5-248.5s111.25-248.5 248.5-248.5c15.71 0 31.09 1.46 45.99 4.25-115.28 21.56-202.52 122.72-202.52 244.25s87.24 222.69 202.52 244.25z" fill="#80b4fb"/><circle cx="182.571" cy="182.571" fill="#ffe07d" r="119.419"/><path d="m210.948 298.586c-9.09 2.228-18.601 3.403-28.378 3.403-65.955 0-119.418-53.463-119.418-119.418s53.463-119.418 119.418-119.418c9.777 0 19.288 1.175 28.378 3.403-52.255 12.725-91.041 59.837-91.041 116.015 0 56.179 38.786 103.29 91.041 116.015z" fill="#ffd064"/><g><path d="m206.306 142.956c-3.904 0-7.318 2.063-9.237 5.151-5.761-3.272-12.412-5.151-19.498-5.151-21.844 0-39.615 17.771-39.615 39.615s17.771 39.615 39.615 39.615c7.086 0 13.737-1.879 19.498-5.151 1.92 3.088 5.333 5.151 9.237 5.151 6.009 0 10.88-4.871 10.88-10.88v-57.47c0-6.009-4.871-10.88-10.88-10.88zm-28.735 57.47c-9.845 0-17.855-8.01-17.855-17.855s8.009-17.855 17.855-17.855 17.855 8.01 17.855 17.855-8.01 17.855-17.855 17.855z" fill="#756e78"/></g><g><path d="m352.614 307.599c-6.605 0-12.842 1.59-18.365 4.391v-19.978c0-6.181-5.011-11.191-11.191-11.191s-11.191 5.011-11.191 11.191v85.891c0 6.181 5.011 11.191 11.191 11.191 4.016 0 7.527-2.122 9.501-5.298 5.926 3.366 12.767 5.298 20.055 5.298 22.469 0 40.748-18.28 40.748-40.748s-18.279-40.747-40.748-40.747zm0 59.113c-10.127 0-18.365-8.239-18.365-18.365 0-10.127 8.238-18.365 18.365-18.365s18.365 8.239 18.365 18.365-8.238 18.365-18.365 18.365z" fill="#756e78"/></g></g><g><g><path d="m206.306 229.687c-3.987 0-7.758-1.265-10.852-3.539-5.657 2.326-11.743 3.539-17.883 3.539-25.979 0-47.115-21.136-47.115-47.115s21.136-47.116 47.115-47.116c6.141 0 12.228 1.213 17.883 3.539 3.094-2.274 6.865-3.539 10.852-3.539 10.135 0 18.38 8.246 18.38 18.38v57.47c0 10.135-8.245 18.381-18.38 18.381zm-9.244-20.153c2.512 0 4.959 1.263 6.376 3.542.626 1.008 1.698 1.61 2.867 1.61 1.864 0 3.38-1.517 3.38-3.38v-57.47c0-1.864-1.516-3.38-3.38-3.38-1.169 0-2.241.602-2.867 1.61-2.125 3.42-6.571 4.552-10.074 2.562-4.806-2.73-10.268-4.173-15.794-4.173-17.708 0-32.115 14.407-32.115 32.116s14.407 32.115 32.115 32.115c5.526 0 10.987-1.443 15.794-4.173 1.169-.662 2.442-.979 3.698-.979zm-19.491-1.608c-13.98 0-25.354-11.374-25.354-25.354 0-13.981 11.374-25.355 25.354-25.355 13.981 0 25.355 11.374 25.355 25.355 0 13.98-11.374 25.354-25.355 25.354zm0-35.71c-5.709 0-10.354 4.645-10.354 10.355 0 5.709 4.645 10.354 10.354 10.354 5.71 0 10.355-4.645 10.355-10.354 0-5.71-4.645-10.355-10.355-10.355z"/></g><g><path d="m352.61 396.59c-6.331 0-12.604-1.257-18.426-3.666-3.165 2.354-7.034 3.666-11.125 3.666-10.306 0-18.689-8.384-18.689-18.69v-85.89c0-10.306 8.384-18.69 18.689-18.69s18.69 8.384 18.69 18.69v9.339c3.558-.825 7.209-1.249 10.86-1.249 26.605 0 48.25 21.645 48.25 48.25 0 11.35-4.033 22.383-11.358 31.066-2.67 3.166-7.4 3.569-10.568.897-3.166-2.671-3.567-7.402-.896-10.569 5.045-5.981 7.823-13.579 7.823-21.394 0-18.334-14.916-33.25-33.25-33.25-5.251 0-10.286 1.204-14.967 3.579-2.325 1.179-5.096 1.067-7.317-.297-2.223-1.364-3.576-3.785-3.576-6.392v-19.98c0-2.035-1.655-3.69-3.69-3.69-2.034 0-3.689 1.655-3.689 3.69v85.89c0 2.035 1.655 3.69 3.689 3.69 1.276 0 2.449-.659 3.139-1.762 2.13-3.411 6.57-4.534 10.063-2.551 4.971 2.822 10.624 4.313 16.349 4.313 1.282 0 2.609-.078 3.945-.231 4.103-.465 7.834 2.48 8.306 6.596.472 4.115-2.481 7.834-6.597 8.306-1.901.218-3.803.329-5.655.329zm.004-22.378c-14.262 0-25.865-11.603-25.865-25.865s11.604-25.865 25.865-25.865 25.865 11.603 25.865 25.865-11.603 25.865-25.865 25.865zm0-36.731c-5.991 0-10.865 4.874-10.865 10.865s4.874 10.865 10.865 10.865 10.865-4.874 10.865-10.865-4.874-10.865-10.865-10.865z"/></g><path d="m256 512c-68.379 0-132.666-26.629-181.019-74.981-48.352-48.353-74.981-112.64-74.981-181.019 0-59.468 20.849-117.405 58.705-163.138 37.361-45.133 89.387-76.32 146.495-87.815 4.065-.819 8.016 1.813 8.833 5.873.817 4.061-1.812 8.015-5.873 8.833-53.75 10.819-102.724 40.18-137.9 82.675-35.635 43.048-55.26 97.588-55.26 153.572 0 64.372 25.069 124.892 70.588 170.412s106.04 70.588 170.412 70.588 124.893-25.069 170.412-70.588 70.588-106.04 70.588-170.412-25.068-124.892-70.588-170.412-106.04-70.588-170.412-70.588c-6.556 0-13.135.264-19.553.786-4.112.334-7.747-2.74-8.083-6.869-.335-4.128 2.74-7.747 6.869-8.083 6.82-.553 13.807-.834 20.767-.834 68.379 0 132.666 26.629 181.019 74.981 48.352 48.353 74.981 112.64 74.981 181.019s-26.629 132.666-74.981 181.019c-48.353 48.352-112.64 74.981-181.019 74.981z"/><path d="m182.571 309.49c-69.983 0-126.919-56.936-126.919-126.919s56.935-126.919 126.919-126.919 126.919 56.935 126.919 126.919-56.936 126.919-126.919 126.919zm0-238.838c-61.712 0-111.919 50.207-111.919 111.919s50.206 111.919 111.919 111.919 111.919-50.207 111.919-111.919-50.207-111.919-111.919-111.919z"/></g></g></svg>